<svg aria-hidden="true" style="position: absolute; width: 0; height: 0; overflow: hidden;" version="1.1" xmlns="http://www.w3.org/2000/svg" xmlns:xlink="http://www.w3.org/1999/xlink">
<defs>
<symbol id="icon-bath-tub-icon" viewBox="0 0 34 32">
<path fill="#52503b" style="fill: var(--color1, #52503b)" d="M33.136 14.481h-26.597v-10.805c0-0.732 0.554-1.294 1.274-1.294h4.267v1.632c-1.164 0.169-2.106 1.182-2.106 2.42v2.476c0 0.563 0.443 1.013 0.997 1.013h3.934c0.554 0 0.997-0.45 0.997-1.013v-2.476c0-1.125-0.776-2.082-1.829-2.364v-2.701c0-0.563-0.443-1.013-0.997-1.013h-5.264c-1.773 0-3.214 1.463-3.214 3.264v10.805h-3.602c-0.554 0-0.997 0.45-0.997 1.013s0.443 1.013 0.997 1.013h1.33v4.502c0 3.32 2.438 6.078 5.597 6.528l-1.219 2.757c-0.222 0.506 0 1.069 0.499 1.294 0.111 0.056 0.277 0.113 0.388 0.113 0.388 0 0.72-0.225 0.887-0.563l1.552-3.489h15.238c0.111 0 0.222 0 0.388 0l1.552 3.489c0.166 0.394 0.499 0.563 0.887 0.563 0.111 0 0.277 0 0.388-0.113 0.499-0.225 0.72-0.788 0.499-1.294l-1.385-3.095c2.438-0.957 4.211-3.377 4.211-6.19v-4.502h1.33c0.554 0 0.997-0.45 0.997-1.013 0-0.506-0.443-0.957-0.997-0.957zM13.908 7.953h-1.995v-1.519c0-0.281 0.222-0.506 0.499-0.506h0.997c0.277 0 0.499 0.225 0.499 0.506v1.519zM29.867 20.952c0 2.532-2.050 4.671-4.599 4.671h-16.402c-2.494 0-4.599-2.082-4.599-4.671v-4.502h25.6v4.502z"></path>
</symbol>
<symbol id="icon-bed-icon" viewBox="0 0 23 32">
<path fill="#52503b" style="fill: var(--color1, #52503b)" d="M22.68 22.909v-0.052c0 0 0 0 0-0.052l-3.063-12.831v-7.169c0-1.558-1.225-2.805-2.757-2.805h-10.823c-1.532 0-2.757 1.247-2.757 2.805v7.169l-3.063 12.831c0 0.052-0.051 0.156-0.051 0.208v8.052c0 0.519 0.408 0.935 0.919 0.935s0.919-0.416 0.919-0.935v-1.455c0.204-0.571 3.267-1.974 9.495-1.974s9.291 1.455 9.496 1.974v1.455c0 0.519 0.408 0.935 0.919 0.935s0.919-0.416 0.919-0.935v-8c-0.102-0.052-0.153-0.104-0.153-0.156zM4.863 11.013h13.12l2.655 11.117h-18.429l2.655-11.117zM5.068 2.805c0-0.519 0.408-0.987 0.97-0.987h10.823c0.511 0 0.97 0.416 0.97 0.987v6.39h-12.763v-6.39zM11.449 25.818c-2.859 0-7.096 0.364-9.495 1.558v-3.429h18.94v3.429c-2.348-1.195-6.586-1.558-9.444-1.558z"></path>
</symbol>
<symbol id="icon-combined-shape-icon" viewBox="0 0 23 32">
<path fill="#52503b" style="fill: var(--color1, #52503b)" d="M19.852 0c1.593 0 2.93 1.301 2.981 2.966v26.016c0 1.665-1.336 3.018-2.981 3.018h-16.704c-1.645 0-2.981-1.353-2.981-3.018v-26.016c0-1.665 1.336-2.966 2.93-2.966h16.756zM19.801 1.769h-16.704c-0.668 0-1.182 0.572-1.182 1.197v26.016c0 0.676 0.565 1.197 1.182 1.197h16.704c0.668 0 1.182-0.572 1.182-1.197v-26.016c0-0.676-0.565-1.197-1.182-1.197zM17.077 13.893c0.925 0 1.748 0.78 1.748 1.769s-0.771 1.769-1.748 1.769c-0.977 0-1.748-0.78-1.748-1.769s0.771-1.769 1.748-1.769z"></path>
</symbol>

<symbol id="icon-stove-icon" viewBox="0 0 32 32">
<path fill="#52503b" style="fill: var(--color1, #52503b)" d="M29.455 0c1.351 0 2.494 1.093 2.545 2.446v27.057c0 1.405-1.143 2.498-2.494 2.498h-27.013c-1.403 0-2.494-1.145-2.494-2.498v-27.057c0-1.353 1.091-2.446 2.442-2.446h27.013zM29.455 1.769h-27.013c-0.364 0-0.675 0.312-0.675 0.676v27.057c0 0.364 0.312 0.676 0.675 0.676h27.013c0.364 0 0.675-0.312 0.675-0.676v-27.057c0-0.364-0.312-0.676-0.675-0.676zM19.948 26.328c0.519 0 0.935 0.416 0.935 0.937s-0.416 0.937-0.935 0.937h-0.779c-0.519 0-0.935-0.416-0.935-0.937s0.416-0.937 0.935-0.937h0.779zM24.779 26.328c0.519 0 0.935 0.416 0.935 0.937s-0.416 0.937-0.935 0.937h-0.779c-0.519 0-0.935-0.416-0.935-0.937s0.416-0.937 0.935-0.937h0.779zM9.403 16.338c2.182 0 4 1.821 4 4.006s-1.818 4.006-4 4.006c-2.182 0-4-1.821-4-4.006s1.818-4.006 4-4.006zM22.494 16.338c2.234 0 4 1.821 4 4.006s-1.818 4.006-4 4.006c-2.182 0-4-1.821-4-4.006s1.818-4.006 4-4.006zM9.403 18.159c-1.195 0-2.182 0.989-2.182 2.185s0.987 2.185 2.182 2.185c1.195 0 2.182-0.989 2.182-2.185s-0.987-2.185-2.182-2.185zM22.494 18.159c-1.195 0-2.182 0.989-2.182 2.185s0.987 2.185 2.182 2.185c1.195 0 2.182-0.989 2.182-2.185s-0.987-2.185-2.182-2.185zM9.403 4.735c2.182 0 4 1.769 4 4.006 0 2.185-1.818 4.007-4 4.007s-4-1.821-4-4.007 1.818-4.006 4-4.006zM22.494 4.735c2.234 0 4 1.769 4 4.006 0 2.185-1.818 4.007-4 4.007s-4-1.821-4-4.007c0-2.185 1.818-4.006 4-4.006zM9.403 6.556c-1.195 0-2.182 0.989-2.182 2.185s0.987 2.185 2.182 2.185c1.195 0 2.182-0.989 2.182-2.185s-0.987-2.185-2.182-2.185zM22.494 6.556c-1.195 0-2.182 0.989-2.182 2.185s0.987 2.185 2.182 2.185c1.195 0 2.182-0.989 2.182-2.185s-0.987-2.185-2.182-2.185z"></path>
</symbol>
<symbol id="icon-trees-icon" viewBox="0 0 32 32">
<path fill="#52503b" style="fill: var(--color1, #52503b)" d="M25.878 10.796l0.173 0.009c0.397 0.044 0.744 0.238 0.972 0.549l3.018 4.011c0.312 0.406 0.364 0.965 0.104 1.421-0.156 0.254-0.364 0.457-0.625 0.609l2.29 3.808c0.26 0.457 0.26 0.965-0.052 1.421-0.208 0.457-0.676 0.711-1.197 0.711h-3.747v4.417c0 0.508-0.416 0.914-0.937 0.914s-0.937-0.406-0.937-0.914v-4.417h-3.799c-0.468 0-0.937-0.305-1.197-0.711s-0.26-0.965 0-1.371l2.29-3.858c-0.26-0.102-0.468-0.355-0.625-0.609-0.26-0.457-0.208-1.015 0.104-1.421l3.018-4.011c0.26-0.355 0.677-0.558 1.145-0.558zM8.601 3.333c0.468 0 0.885 0.203 1.145 0.558l4.892 6.397c0.312 0.406 0.364 0.965 0.104 1.421s-0.729 0.762-1.301 0.762l3.695 6.346c0.26 0.406 0.26 0.965 0 1.371-0.208 0.406-0.676 0.66-1.197 0.66h-6.349v6.854c0 0.508-0.416 0.914-0.937 0.914s-0.937-0.406-0.937-0.914v-6.854h-6.297c-0.52 0-0.989-0.305-1.249-0.762-0.26-0.406-0.208-0.965 0.052-1.371l4.059-6.244h-0.468c-0.52 0-0.989-0.305-1.249-0.762s-0.208-1.015 0.104-1.421l4.788-6.397c0.26-0.355 0.677-0.558 1.145-0.558zM25.826 12.827l-2.342 3.097c0.208 0.102 0.416 0.305 0.52 0.508 0.26 0.406 0.26 0.965 0 1.371l-2.186 3.706h8.014l-2.186-3.706c-0.26-0.406-0.26-0.965 0-1.371 0.104-0.203 0.312-0.406 0.52-0.508l-2.342-3.097zM8.601 5.415l-4.007 5.331h0.364c0.52 0 1.041 0.305 1.249 0.711s0.208 0.965-0.052 1.371l-4.007 6.244h13.010l-3.695-6.295c-0.26-0.406-0.26-0.965 0-1.371 0.26-0.355 0.677-0.66 1.145-0.66l-4.007-5.331z"></path>
</symbol>
<symbol id="icon-shape-icon" viewBox="0 0 32 32">
<path fill="#52503b" style="fill: var(--color1, #52503b)" d="M28.187 0h-18.766c-1.782 0-3.198 1.403-3.198 3.169v2.493c0 1.455 0.944 2.649 2.306 3.013v2.078c0 0.519 0.419 0.935 0.944 0.935s0.943-0.416 0.943-0.935v-1.922h10.746c0.734 0 1.363 0.623 1.363 1.351v11.636c0 0.727-0.629 1.351-1.363 1.351h-8.492c1.415-1.091 2.306-2.805 2.306-4.675 0-0.519-0.419-0.935-0.944-0.935h-10.222c-0.524 0-0.944 0.416-0.944 0.935 0 1.87 0.891 3.584 2.306 4.675h-1.31c-1.782 0-3.198 1.403-3.198 3.169v2.494c0 1.766 1.415 3.169 3.198 3.169h24.27c1.782 0 3.198-1.403 3.198-3.169v-25.662c0.052-1.714-1.415-3.169-3.145-3.169zM12.985 19.377c-0.419 1.87-2.097 3.221-4.089 3.221s-3.669-1.403-4.089-3.221h8.177zM29.55 28.831c0 0.727-0.629 1.351-1.363 1.351h-24.323c-0.734 0-1.363-0.623-1.363-1.351v-2.494c0-0.727 0.629-1.351 1.363-1.351h17.194c1.782 0 3.198-1.403 3.198-3.169v-11.636c0-1.766-1.415-3.169-3.198-3.169h-11.637c-0.734 0-1.363-0.623-1.363-1.351v-2.494c0-0.727 0.629-1.351 1.363-1.351h18.714c0.734 0 1.363 0.623 1.363 1.351v25.662h0.052z"></path>
</symbol>
<symbol id="icon-forest-icon" viewBox="0 0 32 32">
<path fill="#52503b" style="fill: var(--color1, #52503b)" d="M20.571 10.090l0.236 0.009c1.088 0.082 1.977 0.728 2.413 1.731l6.078 14.38h1.766c0.519 0 0.935 0.358 0.935 0.87s-0.416 0.921-0.935 0.921h-30.13c-0.519 0-0.935-0.358-0.935-0.87s0.416-0.921 0.935-0.921h1.143l5.299-12.793c0.416-1.075 1.403-1.74 2.597-1.74 1.195 0.051 2.182 0.665 2.649 1.74l2.39 5.578 2.961-7.164c0.416-1.075 1.403-1.74 2.597-1.74zM20.571 11.932l-0.051 0.002c-0.197 0.012-0.648 0.101-0.884 0.612l-3.688 8.853 2.078 4.861h1.714v-1.228c-1.039-0.461-1.766-1.689-1.766-3.224 0-1.945 1.195-3.429 2.649-3.429s2.649 1.535 2.649 3.429c0 1.535-0.675 2.763-1.714 3.224v1.228h5.766l-5.818-13.714c-0.208-0.563-0.779-0.614-0.935-0.614zM9.974 13.518c-0.156 0-0.675 0.051-0.935 0.614l-5.039 12.128h12.052l-5.143-12.128c-0.208-0.563-0.779-0.614-0.935-0.614zM20.623 20.119c-0.312 0-0.831 0.614-0.831 1.637s0.468 1.638 0.831 1.638 0.831-0.614 0.831-1.638c0-1.023-0.52-1.637-0.831-1.637zM27.377 4c1.818 0 3.273 1.433 3.273 3.224s-1.506 3.224-3.273 3.224c-1.766 0-3.273-1.433-3.273-3.224s1.454-3.224 3.273-3.224zM27.377 5.842c-0.779 0-1.455 0.614-1.455 1.433s0.623 1.433 1.455 1.433c0.831 0 1.455-0.614 1.455-1.433s-0.675-1.433-1.455-1.433z"></path>
</symbol>
<symbol id="icon-air-conditioner-icon" viewBox="0 0 32 32">
<path fill="#52503b" style="fill: var(--color1, #52503b)" d="M29.506 8c1.351 0 2.494 1.12 2.494 2.507v10.933c0 1.44-1.143 2.56-2.494 2.56h-27.013c-1.351 0-2.442-1.12-2.494-2.453v-10.987c0-1.44 1.143-2.56 2.494-2.56h27.013zM15.117 18.88h-5.714v3.253h5.714v-3.253zM22.649 18.88h-5.714v3.253h5.714v-3.253zM7.584 18.88h-5.714v2.613c0 0.373 0.26 0.64 0.623 0.64h5.091v-3.253zM30.13 18.88h-5.714v3.253h5.091c0.364 0 0.675-0.267 0.623-0.64v-2.613zM29.506 9.867h-27.013c-0.364 0-0.623 0.267-0.623 0.64v6.56h28.312v-6.507c0-0.373-0.312-0.693-0.675-0.693zM26.442 12.427c0.519 0 0.935 0.427 0.935 0.96s-0.416 0.96-0.935 0.96h-3.325c-0.519 0-0.935-0.427-0.935-0.96s0.416-0.96 0.935-0.96h3.325z"></path>
</symbol>
<symbol id="icon-shape-icon1" viewBox="0 0 32 32">
<path fill="#52503b" style="fill: var(--color1, #52503b)" d="M27.948 6.804h-5.558v-1.824c0-2.032-1.662-3.647-3.636-3.647h-5.506c-2.026 0-3.636 1.667-3.636 3.647v1.824h-5.558c-2.234 0-4.052 1.824-4.052 4.064v5.106c0 0.521 0.416 0.938 0.935 0.938h0.468v9.899c0 2.136 1.714 3.856 3.844 3.856h21.506c2.13 0 3.844-1.719 3.844-3.856v-9.899h0.468c0.519 0 0.935-0.417 0.935-0.938v-5.106c0-2.24-1.818-4.064-4.052-4.064zM11.429 4.98c0-0.99 0.831-1.824 1.818-1.824h5.455c0.987 0 1.818 0.834 1.818 1.824v1.824h-9.091v-1.824zM1.87 10.868c0-1.198 0.987-2.24 2.234-2.24h23.896c1.195 0 2.234 0.99 2.234 2.24v4.22h-28.364v-4.22zM28.779 26.759c0 1.146-0.935 2.032-2.026 2.032h-21.506c-1.143 0-2.026-0.938-2.026-2.032v-9.899h6.39v3.23c0 0.521 0.416 0.938 0.935 0.938s0.935-0.417 0.935-0.938v-3.23h9.143v3.23c0 0.521 0.416 0.938 0.935 0.938s0.935-0.417 0.935-0.938v-3.23h6.39v9.899h-0.104z"></path>
</symbol>
<symbol id="icon-glass-icon" viewBox="0 0 21 32">
<path fill="#52503b" style="fill: var(--color1, #52503b)" d="M17.989 21.316c1.862-1.971 2.82-4.616 2.661-7.313l-0.851-11.151c-0.106-1.608-1.49-2.853-3.139-2.853h-11.972c-1.649 0-3.033 1.245-3.139 2.853l-0.851 11.151c-0.213 2.697 0.745 5.342 2.66 7.313 1.65 1.763 3.938 2.852 6.385 3.060v5.757h-4.15c-0.532 0-0.958 0.415-0.958 0.934s0.426 0.933 0.958 0.933h10.163c0.532 0 0.958-0.415 0.958-0.933s-0.426-0.934-0.958-0.934h-4.15v-5.757c2.448-0.207 4.736-1.297 6.385-3.060zM4.687 1.815h11.972c0.639 0 1.224 0.519 1.277 1.141l0.372 4.668h-15.218l0.372-4.668c0-0.622 0.585-1.141 1.224-1.141zM2.611 14.107l0.319-4.616h15.484l0.319 4.616c0.16 2.23-0.585 4.305-2.128 5.964-1.543 1.608-3.671 2.541-5.959 2.541s-4.363-0.882-5.959-2.541c-1.49-1.608-2.235-3.734-2.075-5.964z"></path>
</symbol>
<symbol id="icon-pizza-icon" viewBox="0 0 32 32">
<path fill="#52503b" style="fill: var(--color1, #52503b)" d="M31.878 18.375c-1.145-3.64-3.748-7.592-7.236-11.077-3.436-3.484-7.392-6.032-11.036-7.176-1.301-0.416-2.759 0.26-3.227 1.56l-10.203 26.781c-0.364 0.988-0.156 2.028 0.573 2.756 0.521 0.52 1.145 0.78 1.822 0.78 0.312 0 0.625-0.052 0.937-0.156l15.669-5.98c0.052 0 0.052 0 0.104-0.052l1.874-0.728 9.11-3.484c1.354-0.468 2.030-1.924 1.614-3.224zM2.883 30.076c-0.416 0.156-0.729-0.104-0.833-0.156-0.104-0.104-0.364-0.364-0.156-0.832l2.186-5.72c0.521 1.144 1.614 1.924 2.967 1.924 1.77 0 3.228-1.456 3.228-3.224s-1.458-3.224-3.228-3.224c-0.468 0-0.937 0.104-1.353 0.312l4.060-10.713c0.677 0.416 1.353 0.832 2.030 1.352-0.833 0.572-1.353 1.56-1.353 2.6 0 1.768 1.458 3.224 3.227 3.224 1.354 0 2.499-0.832 2.967-1.976 2.499 2.34 4.945 5.148 7.028 8.58l-1.249 0.468c0-1.768-1.458-3.224-3.228-3.224s-3.227 1.456-3.227 3.224c0 0.832 0.312 1.56 0.833 2.132l-13.899 5.252zM5.59 22.067c0-0.78 0.625-1.404 1.406-1.404s1.406 0.624 1.406 1.404c0 0.78-0.625 1.404-1.406 1.404s-1.406-0.624-1.406-1.404zM15.064 12.291c0 0.052 0 0.052 0 0.104 0 0.78-0.625 1.404-1.405 1.404s-1.405-0.624-1.405-1.404c0-0.728 0.521-1.3 1.249-1.404 0.521 0.416 1.041 0.832 1.562 1.3zM18.812 24.044c-0.625-0.156-1.093-0.728-1.093-1.352 0-0.78 0.625-1.404 1.405-1.404s1.405 0.624 1.405 1.404c0 0.312-0.104 0.572-0.26 0.78l-1.458 0.572zM29.692 19.883l-4.321 1.664c-2.551-4.316-5.726-7.748-8.797-10.401-0.052 0-0.052-0.052-0.104-0.052-0.729-0.624-1.457-1.196-2.186-1.716l-0.052-0.052c-1.353-0.988-2.655-1.872-3.852-2.6l1.666-4.42c0.104-0.312 0.417-0.52 0.729-0.52 0.104 0 0.156 0 0.26 0.052 3.332 1.040 7.080 3.536 10.307 6.76s5.726 7.020 6.767 10.349c0.156 0.364-0.052 0.78-0.417 0.936z"></path>
</symbol>

<symbol id="icon-star-icon" viewBox="0 0 32 32">
<path fill="#52503b" style="fill: var(--color1, #52503b)" d="M31.276 11.537l-9.991-1.546-4.526-9.494c-0.331-0.662-1.214-0.662-1.546 0l-4.526 9.55-9.936 1.49c-0.718 0.11-0.994 1.049-0.442 1.546l7.231 7.452-1.711 10.433c-0.11 0.718 0.607 1.325 1.27 0.883l8.998-4.913 8.942 4.913c0.607 0.331 1.38-0.221 1.214-0.883l-1.711-10.433 7.231-7.452c0.442-0.497 0.221-1.435-0.497-1.546z"></path>
</symbol>
<symbol id="icon-star-outline-icon" viewBox="0 0 32 32">
<path fill="#52503b" style="fill: var(--color1, #52503b)" d="M31.879 12.053c-0.213-0.64-0.747-1.12-1.387-1.227l-8.907-1.387-4-8.427c-0.32-0.64-0.907-1.013-1.6-1.013s-1.28 0.373-1.547 1.013l-4 8.48-8.96 1.44c-0.64 0.107-1.173 0.587-1.387 1.227s-0.053 1.387 0.427 1.867l6.453 6.613-1.493 9.227c-0.107 0.693 0.16 1.387 0.747 1.813 0.32 0.213 0.64 0.32 0.96 0.32 0.267 0 0.587-0.053 0.8-0.213l8-4.373 7.947 4.32c0.587 0.32 1.28 0.267 1.813-0.107 0.587-0.427 0.853-1.12 0.747-1.813l-1.493-9.28 6.453-6.613c0.48-0.48 0.64-1.227 0.427-1.867zM30.653 13.173l-6.4 6.613c-0.213 0.213-0.32 0.587-0.267 0.907l1.493 9.28c0.053 0.373-0.107 0.64-0.32 0.747-0.107 0.053-0.373 0.213-0.693 0.053l-8-4.32c-0.32-0.16-0.64-0.16-0.96 0l-8 4.373c-0.32 0.16-0.587 0.053-0.693-0.053-0.16-0.107-0.373-0.427-0.32-0.747l1.547-9.227c0.053-0.32-0.053-0.693-0.267-0.907l-6.453-6.613c-0.267-0.267-0.267-0.587-0.213-0.8 0.107-0.267 0.267-0.427 0.533-0.48l8.96-1.44c0.32-0.053 0.64-0.267 0.747-0.587l4-8.48c0.16-0.267 0.373-0.427 0.64-0.427s0.48 0.16 0.587 0.427l4 8.48c0.16 0.32 0.427 0.533 0.747 0.587l8.907 1.387c0.267 0.053 0.48 0.213 0.533 0.48 0.16 0.16 0.16 0.533-0.107 0.747z"></path>
</symbol>

<symbol id="icon-circle-icon" viewBox="0 0 32 32">
<path fill="none" stroke="#52503b" style="stroke: var(--color1, #52503b)" stroke-linejoin="miter" stroke-linecap="butt" stroke-miterlimit="4" stroke-width="1.0667" d="M16 31.467c-8.542 0-15.467-6.925-15.467-15.467s6.925-15.467 15.467-15.467c8.542 0 15.467 6.925 15.467 15.467s-6.925 15.467-15.467 15.467z"></path>
</symbol>

<symbol id="icon-bread-icon" viewBox="0 0 32 32">
<path fill="#52503b" style="fill: var(--color1, #52503b)" d="M16.026 9.333c-8.949 0-16.026 3.763-16.026 8.495 0 0.43 0.052 0.914 0.208 1.398 0.312 0.968 1.041 1.72 2.029 2.043 2.654 0.86 7.909 1.398 13.736 1.398s11.083-0.538 13.736-1.398c0.989-0.323 1.717-1.075 2.029-1.989l0.052-0.108c0.104-0.484 0.208-0.914 0.208-1.344 0.052-4.785-7.025-8.495-15.974-8.495zM30.126 18.634v0.054c-0.104 0.376-0.416 0.699-0.833 0.806-2.497 0.806-7.701 1.29-13.268 1.29s-10.771-0.538-13.216-1.29c-0.416-0.161-0.728-0.43-0.833-0.806-0.104-0.269-0.104-0.591-0.104-0.86 0-1.882 1.821-3.656 4.683-4.893 0.52 2.312 2.133 3.979 4.058 3.979 0.52 0 0.937-0.43 0.937-0.968s-0.416-0.968-0.937-0.968c-1.093 0-2.081-1.129-2.341-2.742 1.561-0.484 3.382-0.86 5.255-1.021 0.312 2.634 1.873 5.645 4.163 5.645 0.52 0 0.937-0.43 0.937-0.968s-0.416-0.968-0.937-0.968c-0.989 0-2.081-1.882-2.341-3.871 0.208 0 0.468 0 0.676 0 1.561 0 3.122 0.108 4.527 0.376 0.104 2.957 1.977 5.376 4.215 5.376 0.52 0 0.937-0.43 0.937-0.968s-0.416-0.968-0.937-0.968c-1.197 0-2.185-1.398-2.393-3.118 4.579 1.129 7.805 3.387 7.805 5.914 0.052 0.43 0 0.699-0.052 0.968z"></path>
</symbol>
<symbol id="icon-cutlery-icon" viewBox="0 0 32 32">
<path fill="#52503b" style="fill: var(--color1, #52503b)" d="M23.656 0c3.073 0 5.625 2.498 5.677 5.672v11.187c0 0.937-0.729 1.665-1.667 1.665h-1.094v11.083c0 1.301-1.094 2.393-2.396 2.393h-1.51c-1.302 0-2.396-1.093-2.396-2.393v-27.941c0-0.937 0.729-1.665 1.667-1.665h1.719zM8.292 0.052c0.521 0 0.938 0.416 0.938 0.937v7.961h2.917v-7.909c0-0.52 0.417-0.937 0.938-0.937s0.885 0.416 0.937 0.885v13.32c0 0.78-0.573 1.353-1.354 1.353h-1.198v13.893c0 1.301-1.094 2.393-2.396 2.393h-1.458c-1.302 0-2.396-1.093-2.396-2.393v-13.945h-1.198c-0.781 0-1.354-0.572-1.354-1.353v-13.268c0-0.468 0.365-0.937 0.885-0.937s0.938 0.416 0.938 0.937v7.909h2.865v-7.909c0-0.52 0.417-0.937 0.938-0.937zM24.75 18.524h-2.656v11.083c0 0.312 0.26 0.572 0.573 0.572h1.51c0.313 0 0.573-0.312 0.573-0.624v-11.031zM9.646 15.662h-2.604v13.945c0 0.312 0.26 0.572 0.573 0.572h1.458c0.313 0 0.573-0.26 0.573-0.572v-13.945zM23.604 1.821h-1.563v14.881h5.417v-11.031c0-2.133-1.719-3.85-3.854-3.85zM12.198 10.719h-7.708v3.122h7.708v-3.122z"></path>
</symbol>
<symbol id="icon-hanger-icon" viewBox="0 0 32 32">
<path fill="#52503b" style="fill: var(--color1, #52503b)" d="M27.78 21.351l-9.424-4.935c0.104-0.312 0-0.727-0.311-0.935-0.363-0.312-0.932-0.26-1.294 0.104-0.104 0.156-0.518 0.26-0.984 0.156-0.414-0.104-0.673-0.416-0.725-0.883-0.052-0.675 0.259-1.143 1.036-1.455 0.518-0.208 0.88-0.727 0.828-1.299v-3.377c1.968-0.416 3.418-2.182 3.418-4.312 0-2.442-1.968-4.416-4.401-4.416s-4.401 1.974-4.401 4.416c0 2.13 1.502 3.896 3.521 4.312l0.052 3.065c-1.294 0.675-2.019 1.818-1.864 3.221 0.052 0.519 0.207 0.935 0.466 1.351l-9.476 4.987c-0.777 0.364-1.295 1.091-1.502 1.922 0 0 0 0 0 0.052-0.052 0.208-0.052 0.416-0.052 0.623v5.143c0 1.61 1.294 2.909 2.9 2.909h20.867c1.605 0 2.9-1.299 2.9-2.909v-5.143c0-1.143-0.621-2.13-1.553-2.597zM13.385 4.416c0-1.455 1.139-2.597 2.589-2.597s2.589 1.143 2.589 2.597-1.139 2.597-2.589 2.597c-1.45 0-2.589-1.143-2.589-2.597zM15.405 17.558l0.052-0.052c0.259 0.052 0.466 0.104 0.725 0.104 0.155 0 0.311 0 0.466-0.052l9.527 4.987h-20.349l9.579-4.987zM26.434 30.182h-20.919c-0.621 0-1.087-0.519-1.087-1.091v-4.675h23.094v4.675c0 0.571-0.518 1.091-1.087 1.091z"></path>
</symbol>
<symbol id="icon-wi-fi-icon" viewBox="0 0 32 32">
<path fill="#52503b" style="fill: var(--color1, #52503b)" d="M27.974 23.396c2.248 0 4.026 1.804 4.026 3.969s-1.83 3.969-4.026 3.969c-2.196 0-4.026-1.804-4.026-3.969s1.83-3.969 4.026-3.969zM29.438 0.667c0.523 0 0.941 0.412 0.941 0.928s-0.418 0.928-0.941 0.928c-15.216 0-27.608 12.164-27.555 27.213 0 0.515-0.418 0.928-0.941 0.928s-0.941-0.412-0.941-0.928c0-16.029 13.176-29.017 29.438-29.069zM29.386 9.068c0.523 0 0.941 0.412 0.941 0.928 0 0.464-0.366 0.876-0.889 0.876-10.562 0-19.137 8.453-19.085 18.812 0 0.515-0.418 0.928-0.941 0.928s-0.941-0.412-0.941-0.928c0-11.339 9.359-20.616 20.915-20.616zM29.386 17.366c0.523 0 0.941 0.412 0.941 0.928s-0.366 0.876-0.889 0.876c-5.856 0-10.667 4.69-10.667 10.514 0 0.515-0.418 0.928-0.941 0.928s-0.941-0.412-0.941-0.928c0-6.803 5.595-12.318 12.497-12.318zM27.974 25.252c-1.203 0-2.196 0.979-2.196 2.165s0.993 2.165 2.196 2.165c1.203 0 2.196-0.979 2.196-2.165s-0.994-2.165-2.196-2.165z"></path>
</symbol>

<symbol id="icon-airbnb-icon" viewBox="0 0 30 32">
<path d="M15.040 24.361c-1.777-2.271-2.793-4.232-3.148-5.987-1.574-6.348 7.922-6.348 6.348 0-0.406 1.755-1.473 3.819-3.199 5.987zM24.688 29.574c-2.945 1.29-5.891-0.774-8.379-3.561 7.313-9.29 3.301-14.348-1.27-14.348-3.859 0-5.992 3.252-5.129 7.174 0.508 2.116 1.777 4.439 3.859 7.122-2.285 2.529-4.215 3.768-5.992 3.922-3.504 0.568-6.246-2.89-4.926-6.451 1.066-2.787 7.871-16.516 8.176-17.238 1.066-2.168 1.777-4.077 4.164-4.077 2.285 0 3.098 1.806 4.215 4.284 2.59 5.006 6.297 12.645 8.074 17.032 0.762 2.323-0.203 5.058-2.793 6.142zM28.040 19.871c-9.090-19.561-9.598-19.871-13-19.871-3.199 0-4.57 2.271-5.941 5.161-7.516 15.226-8.176 17.29-8.328 17.548-1.727 4.955 1.93 9.29 6.297 9.29 1.523 0 4.316-0.413 7.922-4.439 4.164 4.593 7.16 4.439 7.922 4.439 4.418 0 8.074-4.387 6.297-9.29 0.051-0.31-1.168-2.787-1.168-2.839z"></path>
</symbol>
<symbol id="icon-facebook-icon" viewBox="0 0 18 32">
<path d="M11.129 32h-3.935c-1.009 0-1.816-0.855-1.816-1.912v-11.975h-3.228c-1.009 0-1.816-0.855-1.816-1.912v-3.472c0-1.057 0.807-1.912 1.816-1.912h3.128v-3.17c0-4.579 2.724-7.648 6.76-7.648h3.027c1.009 0 1.816 0.855 1.816 1.912v4.075c0 1.057-0.807 1.912-1.816 1.912h-2.068c-0.050 0-0.050 0-0.101 0 0 0.050 0 0.101 0 0.151v2.717h2.875c0.605 0.050 1.11 0.302 1.463 0.704 0.353 0.453 0.505 1.057 0.404 1.61l-0.605 3.421c-0.101 0.906-0.858 1.56-1.816 1.56h-2.32v12.025c0 1.006-0.807 1.912-1.766 1.912zM6.235 16.352c0.504 0 0.908 0.402 0.908 0.906v12.83c0 0.101 0.050 0.151 0.050 0.151h3.935c0 0 0.050-0.050 0.050-0.151v-12.931c0-0.503 0.404-0.906 0.908-0.906h3.178c0 0 0.050 0 0.050-0.050v-0.050l0.605-3.371c0-0.101 0-0.151-0.050-0.201 0 0-0.050-0.050-0.101-0.050h-3.733c-0.505 0-0.908-0.402-0.908-0.906v-3.572c0-0.906 0.151-1.912 1.866-1.912h2.068c0 0 0.050-0.050 0.050-0.151v-4.025c0-0.101-0.050-0.151-0.050-0.151h-2.976c-3.027 0-4.994 2.314-4.994 5.887v4.075c0 0.503-0.404 0.906-0.908 0.906h-4.036c0 0-0.050 0.050-0.050 0.151v3.472c0 0.101 0.050 0.151 0.050 0.151l4.086-0.101z"></path>
</symbol>
<symbol id="icon-instagram-icon" viewBox="0 0 32 32">
<path d="M24.038 0c4.384 0 7.962 3.533 7.962 7.924v16.101c0 4.391-3.528 7.975-7.912 7.975h-16.126c-4.384 0-7.962-3.533-7.962-7.924v-16.151c0-4.391 3.528-7.924 7.912-7.924h16.126zM24.038 1.767h-16.126c-3.376 0-6.148 2.776-6.148 6.158v16.151c0 3.432 2.772 6.208 6.148 6.208h16.176c3.376 0 6.148-2.776 6.148-6.208v-16.101c0-3.432-2.772-6.208-6.198-6.208zM15.975 8.58c4.082 0 7.408 3.331 7.408 7.42s-3.326 7.42-7.408 7.42c-4.082 0-7.408-3.331-7.408-7.42s3.326-7.42 7.408-7.42zM15.975 10.347c-3.124 0-5.644 2.524-5.644 5.653s2.52 5.653 5.644 5.653c3.124 0 5.644-2.524 5.644-5.653s-2.52-5.653-5.644-5.653zM24.088 4.946c1.058 0 1.915 0.858 1.915 1.918s-0.857 1.918-1.915 1.918c-1.058 0-1.915-0.858-1.915-1.918s0.857-1.918 1.915-1.918z"></path>
</symbol>
</defs>
</svg>

